<?xml version="1.0" encoding="UTF-8"?>
<svg width="31px" height="31px" viewBox="0 0 31 31" version="1.1" xmlns="http://www.w3.org/2000/svg" xmlns:xlink="http://www.w3.org/1999/xlink">
    
    <title>search</title>
    <desc>Created with Sketch.</desc>
    <g id="icons" stroke="none" stroke-width="1" fill="none" fill-rule="evenodd">
        <g id="ui-gambling-website-lined-icnos-casinoshunter" transform="translate(-2423.000000, -153.000000)" fill="#1C1C1F" fill-rule="nonzero">
            <g id="1" transform="translate(1350.000000, 120.000000)">
                <path d="M1093.53553,36.5649712 C1097.71545,40.744885 1098.19238,47.291526 1094.83227,52.0042063 L1103.43503,60.6066017 C1104.21608,61.3876503 1104.21608,62.6539803 1103.43503,63.4350288 C1102.65398,64.2160774 1101.38765,64.2160774 1100.60664,63.4350681 L1092.00344,54.8328202 L1091.75807,55.0031681 C1087.06576,58.1747947 1080.67257,57.6431328 1076.56497,53.5355339 C1071.87868,48.8492424 1071.87868,41.2512627 1076.56497,36.5649712 C1081.25126,31.8786797 1088.84924,31.8786797 1093.53553,36.5649712 Z M1085.50185,56.0410364 L1085.46749,56.0423857 C1085.36908,56.0460984 1085.27062,56.0484969 1085.17215,56.0495813 C1085.28312,56.0483436 1085.39251,56.0455011 1085.50185,56.0410364 Z M1083.92571,55.9929689 L1083.99021,55.9993672 C1084.11183,56.0110735 1084.23362,56.0207601 1084.35551,56.0284268 C1084.21196,56.0193955 1084.06872,56.0075797 1083.92571,55.9929689 Z M1082.87397,55.8340273 L1083.10847,55.8784908 C1083.24177,55.9022744 1083.37542,55.9235881 1083.50936,55.9424317 C1083.29688,55.912542 1083.08493,55.8763982 1082.87397,55.8340273 Z M1087.02951,55.8717388 L1086.93717,55.8881375 C1086.90085,55.8944288 1086.8645,55.900537 1086.82813,55.9064621 C1086.89513,55.8955498 1086.96236,55.8839579 1087.02951,55.8717388 Z M1081.42744,55.4392229 L1081.66395,55.5184993 C1082.01247,55.6309276 1082.3655,55.7255279 1082.72159,55.8023002 C1082.28483,55.7081462 1081.85251,55.5871062 1081.42744,55.4392229 Z M1088.0674,55.630457 L1087.80716,55.7009727 C1087.66357,55.737995 1087.51938,55.7720742 1087.37469,55.8032102 C1087.60722,55.7531661 1087.83816,55.6956027 1088.0674,55.630457 Z M1089.09194,55.2838364 C1089.04305,55.3031169 1088.99405,55.3220336 1088.94495,55.3405865 L1088.94477,55.3406552 Z M1080.68815,55.1515692 L1080.82883,55.2111106 C1080.78187,55.1916224 1080.73502,55.1717947 1080.68828,55.1516276 L1080.68815,55.1515692 Z M1089.63885,55.0507767 L1089.49896,55.1137571 C1089.42288,55.1473668 1089.3465,55.1800718 1089.26984,55.2118722 C1089.3934,55.1606247 1089.51653,55.1068817 1089.63885,55.0507767 Z M1080.13921,54.8964396 L1080.26945,54.9603441 L1080.26945,54.9603441 L1080.28027,54.9655541 C1080.23312,54.9428716 1080.1861,54.9198335 1080.13921,54.8964396 Z M1079.35192,54.4622393 L1079.46575,54.5303325 C1079.62151,54.6222331 1079.77904,54.7099662 1079.9382,54.7935317 C1079.74034,54.6896525 1079.54472,54.5791749 1079.35192,54.4622393 Z M1091.49243,53.9684576 L1091.34995,54.0699201 C1091.26583,54.1288254 1091.18106,54.1864166 1091.09568,54.2426936 L1091.1113,54.2323789 C1091.23976,54.1473855 1091.36684,54.0594118 1091.49243,53.9684576 Z M1078.68629,38.6862915 C1075.17157,42.2010101 1075.17157,47.8994949 1078.68629,51.4142136 C1082.20101,54.9289322 1087.89949,54.9289322 1091.41421,51.4142136 C1094.92893,47.8994949 1094.92893,42.2010101 1091.41421,38.6862915 C1087.89949,35.1715729 1082.20101,35.1715729 1078.68629,38.6862915 Z M1092.08905,53.5042914 L1091.84681,53.700719 L1091.84681,53.700719 L1091.86366,53.6874254 L1091.86366,53.6874254 L1092.08905,53.5042914 Z M1077.55437,53.1010123 L1077.48404,53.0348667 C1077.69477,53.234757 1077.91147,53.4247092 1078.13356,53.6047233 C1077.93602,53.4445998 1077.74286,53.2767322 1077.55437,53.1010123 Z M1077.27208,52.8284271 L1077.48404,53.0348667 L1077.49485,53.0451147 L1077.49485,53.0451147 L1077.27208,52.8284271 L1077.27208,52.8284271 Z" id="search"></path>
            </g>
        </g>
    </g>
</svg>